<svg xmlns="http://www.w3.org/2000/svg" width="512" height="512" viewBox="0 0 480 480" role="img" aria-labelledby="title desc">
  <title id="title">Photo No-Location Zones</title>
  <desc id="desc">A deep navy rounded square with cyan viewfinder L-brackets at the corners, a dashed cyan geofence circle in the center, a white location pin with a hollow marker dot, and a coral diagonal slash through the dot. Foreground content respects the Android adaptive-icon safe zone.</desc>

  <!-- Canvas -->
  <rect width="480" height="480" rx="108" fill="#0F2A47"/>

  <!-- Viewfinder corner brackets (photo framing) -->
  <g stroke="#7DD3FC" stroke-width="8" stroke-linecap="round" stroke-linejoin="round" fill="none">
    <path d="M 80,120 L 80,80 L 120,80"/>
    <path d="M 360,80 L 400,80 L 400,120"/>
    <path d="M 80,360 L 80,400 L 120,400"/>
    <path d="M 360,400 L 400,400 L 400,360"/>
  </g>

  <!-- Geofence (circular zone) -->
  <circle cx="240" cy="240" r="145"
          fill="#7DD3FC" fill-opacity="0.14"
          stroke="#7DD3FC" stroke-width="8"
          stroke-dasharray="20 13" stroke-linecap="round"/>

  <!-- Location pin (white teardrop) -->
  <path d="M 240,140 C 273,140 300,167 300,200 C 300,240 240,320 240,320 C 240,320 180,240 180,200 C 180,167 207,140 240,140 Z"
        fill="#FFFFFF"/>

  <!-- Pin's marker dot, hollowed to canvas color -->
  <circle cx="240" cy="200" r="25" fill="#0F2A47"/>

  <!-- Strike: navy halo + coral core -->
  <line x1="170" y1="270" x2="310" y2="130"
        stroke="#0F2A47" stroke-width="28" stroke-linecap="round"/>
  <line x1="170" y1="270" x2="310" y2="130"
        stroke="#FF5252" stroke-width="18" stroke-linecap="round"/>
</svg>
